# xmcd
#
# Track frame offsets:
#	150
#	14267
#	30200
#	47255
#	64887
#	76382
#	94632
#	109800
#	125555
#	141587
#	159645
#	174965
#	189002
#	203767
#	220922
#	234437
#	249317
#	262942
#
# Disc length: 3756
#
# Revision: 3
# Processed by: cddbd v1.5.1PL0 Copyright (c) Steve Scherf et al.
# Submitted via: ExactAudioCopy v0.95a4
# Normalized: r2:TDELIM( - )
#
DISCID=e30eaa12
DTITLE=Various Artist - Outlaws and Heroes
DYEAR=1994
DGENRE=Country
TTITLE0=Billy Dean - Billy The Kid
TTITLE1=Mary Chapin Carpenter - I Feel Lucky
TTITLE2=Joe Diffie - Prop Me Up Beside The Jukebox
TTITLE3=Doug Stone - Too Busy Being In Love
TTITLE4=Collin Raye - I Want You Bad
TTITLE5=Michelle Wright - Do Right By Me
TTITLE6=Marty Stuart - Now That's Country
TTITLE7=Sammy Kershaw - Queen Of My Double Wide Trailer
TTITLE8=Gary Fjellgaard - Train Of Dreams
TTITLE9=Billy Ray Cyrus - In The Heart Of A Woman
TTITLE10=Tracy Byrd - Someone To Give My Love To
TTITLE11=Jim Witter - Stolen Moments
TTITLE12=George Jones - He Stopped Loving Her Today
TTITLE13=Ron Hynes - Cryer's Paradise
TTITLE14=Shenandoah - Church On Cumberland Road
TTITLE15=Steve Wariner - If I Didn't Love You
TTITLE16=Tracey Prescott And Lonesome Daddy - Something Big
TTITLE17=Duane Eddy - Theme For Something Really Important
EXTD=
EXTT0=
EXTT1=
EXTT2=
EXTT3=
EXTT4=
EXTT5=
EXTT6=
EXTT7=
EXTT8=
EXTT9=
EXTT10=
EXTT11=
EXTT12=
EXTT13=
EXTT14=
EXTT15=
EXTT16=
EXTT17=
PLAYORDER=
